# xmcd
#
# Track frame offsets: 
#        150
#        18867
#        34644
#        56423
#        72040
#        93104
#        119487
#        139911
#        167177
#        190719
#        222347
#
# Disc length: 3223 seconds
#
# Revision: 0
# Processed by: cddbd v1.5.2PL0 Copyright (c) Steve Scherf et al.
# Submitted via: ExactAudioCopyFreeDBPlugin 1.0
#
DISCID=910c950b
DTITLE=Jo Harman - Dirt On My Tongue
DYEAR=2013
DGENRE=Blues
TTITLE0=I Shall Not Be Moved
TTITLE1=Worthy Of Love
TTITLE2=(This Is My) Amnesty
TTITLE3=Heartstring
TTITLE4=I Don’t Live Here Anymore
TTITLE5=Sweet Man Moses
TTITLE6=Underneath The River
TTITLE7=Fragile
TTITLE8=Cold Heart
TTITLE9=Better Woman
TTITLE10=What You Did For Me
EXTD=
EXTT0=
EXTT1=
EXTT2=
EXTT3=
EXTT4=
EXTT5=
EXTT6=
EXTT7=
EXTT8=
EXTT9=
EXTT10=
PLAYORDER=
